<svg xmlns="http://www.w3.org/2000/svg" viewBox="0 0 1280 300" width="1280" height="300" role="img" aria-label="David Sheppard - Engineering Leader, AI Systems Builder, Platform Architect">
  <defs>
    <linearGradient id="accent" x1="0" y1="0" x2="1" y2="1">
      <stop offset="0%" stop-color="#38bdf8"/>
      <stop offset="55%" stop-color="#818cf8"/>
      <stop offset="100%" stop-color="#22d3ee"/>
    </linearGradient>
    <linearGradient id="glow" x1="0" y1="0" x2="1" y2="0">
      <stop offset="0%" stop-color="#38bdf8" stop-opacity="0.16"/>
      <stop offset="100%" stop-color="#0d1117" stop-opacity="0"/>
    </linearGradient>
    <radialGradient id="nebula" cx="0.5" cy="0.5" r="0.5">
      <stop offset="0%" stop-color="#818cf8" stop-opacity="0.22"/>
      <stop offset="100%" stop-color="#818cf8" stop-opacity="0"/>
    </radialGradient>
    <pattern id="dots" width="24" height="24" patternUnits="userSpaceOnUse">
      <circle cx="1.5" cy="1.5" r="1.1" fill="#30363d"/>
    </pattern>
  </defs>

  <rect width="1280" height="300" fill="#0d1117"/>
  <rect width="1280" height="300" fill="url(#dots)" opacity="0.55"/>
  <rect width="1280" height="300" fill="url(#glow)"/>
  <ellipse cx="1010" cy="150" rx="330" ry="185" fill="url(#nebula)"/>

  <rect x="0" y="0" width="6" height="300" fill="url(#accent)"/>

  <g stroke="#30363d" stroke-width="1.15" fill="none" opacity="0.9">
    <path d="M812 92 L906 54 M812 92 L890 150 M812 92 L836 196"/>
    <path d="M906 54 L1024 88 M890 150 L1024 88 M890 150 L836 196 M890 150 L982 214"/>
    <path d="M1024 88 L1132 62 M1024 88 L1108 156 M1024 88 L982 214"/>
    <path d="M1108 156 L1132 62 M1108 156 L1190 210 M982 214 L1108 156"/>
    <path d="M836 196 L920 254 M920 254 L982 214 M1190 210 L1108 156"/>
  </g>

  <g fill="#0d1117" stroke="url(#accent)" stroke-width="1.6">
    <circle cx="812" cy="92" r="5"/>
    <circle cx="906" cy="54" r="4"/>
    <circle cx="890" cy="150" r="7"/>
    <circle cx="836" cy="196" r="4.5"/>
    <circle cx="1024" cy="88" r="7.5"/>
    <circle cx="1132" cy="62" r="4"/>
    <circle cx="1108" cy="156" r="6"/>
    <circle cx="982" cy="214" r="5"/>
    <circle cx="920" cy="254" r="4"/>
    <circle cx="1190" cy="210" r="4.5"/>
  </g>
  <g fill="#58a6ff" opacity="0.85">
    <circle cx="890" cy="150" r="2.4"/>
    <circle cx="1024" cy="88" r="2.6"/>
    <circle cx="1108" cy="156" r="2.2"/>
  </g>

  <text x="64" y="126" font-family="ui-sans-serif, -apple-system, BlinkMacSystemFont, 'Segoe UI', Helvetica, Arial, sans-serif" font-size="66" font-weight="700" fill="#e6edf3" letter-spacing="-1.6">David Sheppard</text>

  <rect x="66" y="150" width="72" height="4" rx="2" fill="url(#accent)"/>

  <text x="64" y="196" font-family="ui-sans-serif, -apple-system, BlinkMacSystemFont, 'Segoe UI', Helvetica, Arial, sans-serif" font-size="25" font-weight="500" fill="#adbac7">Engineering Leader  ·  AI Systems Builder  ·  Platform Architect</text>

  <text x="64" y="240" font-family="ui-monospace, SFMono-Regular, 'SF Mono', Menlo, Consolas, monospace" font-size="15.5" fill="#7d8590" letter-spacing="0.2">20+ yrs engineering  //  7+ yrs leading managers  //  Plano, TX</text>
</svg>
